#!OML:ASF X:\für Bonn\!DataBase\2005_08_12_Daniel\c3d\Daniel.ASF
:FULLY-SPECIFIED
:DEGREES
92
root -3.6916 6.86525 -1.20644 41.8182 -88.9941 -74.1767
lowerback 55.8368 -2.97476 3.17201
upperback 3.968 -3.67754 -2.24788
thorax -17.3864 -2.2829 -1.92853
lowerneck 7.97068 2.40878 -0.794241
upperneck -2.43247 3.08977 -0.57343
head -2.13536 1.55858 -0.17665
rclavicle 2.15681e-014 -2.78299e-014
rhumerus 74.15 -13.3497 -154.201
rradius 5.78066
rwrist 118.312
rhand -24.8644 11.1466
rfingers 7.12502
rthumb 1.64256 -18.8268
lclavicle 2.15681e-014 -2.78299e-014
lhumerus 61.3874 3.06895 93.9461
lradius 11.7266
lwrist -67.5804
lhand -21.1394 1.23729
lfingers 7.12502
lthumb 5.23974 31.1525
rfemur 21.4332 -51.6862 -133.697
rtibia 152.318
rfoot 341.642 85.6507
rtoes -3.48637
lfemur -187.66 115.876 -81.0714
ltibia 150.146
lfoot 40.4506 -83.0731
ltoes 13.4586
93
root -3.69933 6.7409 -1.20927 39.4016 -88.9428 -72.0066
lowerback 55.9525 -3.00767 3.24089
upperback 4.13123 -3.69727 -2.23884
thorax -17.1962 -2.30441 -1.93845
lowerneck 8.07603 2.41418 -0.829309
upperneck -2.56598 3.09234 -0.56652
head -2.1997 1.5608 -0.171494
rclavicle -2.73329e-014 -4.41302e-014
rhumerus 74.0962 -13.5355 -153.869
rradius 5.65972
rwrist 118.152
rhand -24.9961 11.1959
rfingers 7.12502
rthumb 1.51538 -18.7785
lclavicle -2.73329e-014 -4.41302e-014
lhumerus 61.063 2.92054 93.443
lradius 12.015
lwrist -67.2472
lhand -20.8545 1.27159
lfingers 7.12502
lthumb 5.51479 31.1798
rfemur 20.9942 -50.9166 -135.85
rtibia 153.309
rfoot 333.086 86.6595
rtoes -3.50319
lfemur -186.596 115.667 -77.8129
ltibia 150.992
lfoot 49.7024 -83.4022
ltoes 13.4846
94
root -3.70548 6.62345 -1.21212 36.6168 -88.9208 -69.4085
lowerback 56.0203 -3.03133 3.2803
upperback 4.28543 -3.72423 -2.24026
thorax -17.0141 -2.32609 -1.94422
lowerneck 8.21111 2.43051 -0.89871
upperneck -2.70811 3.10697 -0.526073
head -2.27378 1.5684 -0.150882
rclavicle 5.76476e-015 1.70955e-014
rhumerus 73.9698 -13.7206 -153.544
rradius 5.60546
rwrist 117.961
rhand -25.0489 11.3073
rfingers 7.12502
rthumb 1.46438 -18.6675
lclavicle 5.76476e-015 1.70955e-014
lhumerus 60.7215 2.78257 92.9052
lradius 12.2735
lwrist -66.8934
lhand -20.5536 1.26239
lfingers 7.12502
lthumb 5.80532 31.1629
rfemur 20.3939 -50.3064 -137.752
rtibia 154.255
rfoot 317.09 87.4125
rtoes -3.77259
lfemur -185.702 115.447 -74.8716
ltibia 151.783
lfoot 58.9402 -83.5599
ltoes 13.5008
95
root -3.71056 6.5136 -1.21478 35.3851 -88.8804 -68.3082
lowerback 56.0252 -3.0603 3.35167
upperback 4.44246 -3.73722 -2.24243
thorax -16.823 -2.34276 -1.9739
lowerneck 8.40979 2.43912 -0.964453
upperneck -2.91461 3.11097 -0.479281
head -2.38149 1.57082 -0.129909
rclavicle 4.57205e-015 2.46493e-014
rhumerus 73.8308 -13.9277 -153.219
rradius 5.5804
rwrist 117.766
rhand -25.0283 11.4185
rfingers 7.12502
rthumb 1.4842 -18.5561
lclavicle 4.57205e-015 2.46493e-014
lhumerus 60.3862 2.66313 92.4709
lradius 12.471
lwrist -66.5626
lhand -20.3523 1.19369
lfingers 7.12502
lthumb 5.99966 31.0887
rfemur 19.6619 -49.8318 -139.358
rtibia 155.149
rfoot 294.163 87.8993
rtoes -4.00896
lfemur -184.965 115.186 -72.1461
ltibia 152.533
lfoot 67.5776 -83.5389
ltoes 13.4983
96
root -3.71783 6.46351 -1.22111 35.044 -88.8296 -68.0547
lowerback 55.971 -3.09601 3.43547
upperback 4.6096 -3.7495 -2.236
thorax -16.6139 -2.35925 -2.00102
lowerneck 8.54799 2.45143 -1.02804
upperneck -3.07318 3.12013 -0.447261
head -2.46207 1.57599 -0.112809
rclavicle -5.36719e-015 9.14409e-015
rhumerus 73.6722 -14.125 -152.885
rradius 5.56665
rwrist 117.574
rhand -25.0194 11.5337
rfingers 7.12502
rthumb 1.49284 -18.4409
lclavicle -5.36719e-015 9.14409e-015
lhumerus 60.0847 2.59836 92.1452
lradius 12.5781
lwrist -66.3725
lhand -20.2878 1.19429
lfingers 7.12502
lthumb 6.06196 31.0876
rfemur 19.9091 -48.9811 -141.088
rtibia 155.635
rfoot 267.859 87.0603
rtoes -4.40778
lfemur -357.297 244.885 -248.624
ltibia 207.142
lfoot 74.9915 -96.03
ltoes 13.3519
97
root -3.72174 6.36931 -1.22377 33.2425 -88.7923 -66.3288
lowerback 55.9119 -3.12633 3.51627
upperback 4.78506 -3.76143 -2.24609
thorax -16.3964 -2.37522 -2.04632
lowerneck 8.50891 2.44603 -1.06235
upperneck -3.13796 3.11233 -0.409025
head -2.47787 1.57183 -0.0944056
rclavicle -5.26779e-015 7.95139e-015
rhumerus 73.5285 -14.339 -152.553
rradius 5.58475
rwrist 117.437
rhand -25.0611 11.6113
rfingers 7.12502
rthumb 1.45255 -18.3635
lclavicle -5.26779e-015 7.95139e-015
lhumerus 59.8658 2.56745 91.9716
lradius 12.5341
lwrist -66.4094
lhand -20.4282 1.14867
lfingers 7.12502
lthumb 5.9264 31.0458
rfemur 160.917 48.5782 37.616
rtibia 203.563
rfoot 252.227 93.5305
rtoes -4.89565
lfemur -357.903 245.138 -246.288
ltibia 206.506
lfoot 82.478 -96.3722
ltoes 13.3988
98
root -3.72458 6.28201 -1.22678 32.5582 -88.7683 -65.6659
lowerback 55.8384 -3.15622 3.57956
upperback 4.9271 -3.77641 -2.24206
thorax -16.2176 -2.38991 -2.06592
lowerneck 8.35094 2.45724 -1.14512
upperneck -3.11144 3.12281 -0.381181
head -2.44163 1.57731 -0.0692739
rclavicle -3.57812e-015 6.75868e-015
rhumerus 73.3007 -14.5547 -152.198
rradius 5.60345
rwrist 117.302
rhand -25.171 11.6364
rfingers 7.12502
rthumb 1.34644 -18.3391
lclavicle -3.57812e-015 6.75868e-015
lhumerus 59.6252 2.56795 91.7413
lradius 12.3752
lwrist -66.4133
lhand -20.7971 1.15365
lfingers 7.12502
lthumb 5.57022 31.0604
rfemur 161.718 48.2794 36.4347
rtibia 202.801
rfoot 241.714 94.098
rtoes -5.19361
lfemur -358.617 245.389 -243.911
ltibia 205.898
lfoot 89.066 -96.6162
ltoes 13.2579
99
root -3.72573 6.20559 -1.22911 31.0871 -88.7232 -64.1887
lowerback 55.7839 -3.18619 3.65554
upperback 5.06095 -3.78355 -2.24405
thorax -16.0511 -2.40128 -2.1019
lowerneck 8.09676 2.43921 -1.09667
upperneck -3.02955 3.10791 -0.397091
head -2.36585 1.56969 -0.0775406
rclavicle -2.09718e-014 -1.15295e-014
rhumerus 73.1075 -14.7794 -151.857
rradius 5.66189
rwrist 117.195
rhand -25.3095 11.6598
rfingers 7.12502
rthumb 1.21263 -18.3165
lclavicle -2.09718e-014 -1.15295e-014
lhumerus 59.4348 2.63616 91.8025
lradius 12.1749
lwrist -66.7949
lhand -21.1219 1.20322
lfingers 7.12502
lthumb 5.2567 31.118
rfemur 162.448 47.9789 35.309
rtibia 202.103
rfoot 234.703 94.7397
rtoes -5.71949
lfemur -359.134 245.686 -241.929
ltibia 205.373
lfoot 93.9124 -97.0614
ltoes 13.2608
100
root -3.72568 6.14478 -1.23114 31.3402 -88.678 -64.3988
lowerback 55.7728 -3.22049 3.73073
upperback 5.15538 -3.78977 -2.23392
thorax -15.9355 -2.41126 -2.12273
lowerneck 7.76966 2.43768 -1.06647
upperneck -2.88989 3.11417 -0.411124
head -2.25812 1.57247 -0.0814328
rclavicle -1.47101e-014 -9.54166e-015
rhumerus 72.8755 -15.0113 -151.504
rradius 5.70711
rwrist 117.118
rhand -25.4781 11.6587
rfingers 7.12502
rthumb 1.04983 -18.3185
lclavicle -1.47101e-014 -9.54166e-015
lhumerus 59.2011 2.66632 91.6671
lradius 12.03
lwrist -66.9772
lhand -21.3576 1.23281
lfingers 7.12502
lthumb 5.02912 31.1531
rfemur 162.988 47.7553 34.4026
rtibia 201.524
rfoot 231.307 95.3751
rtoes -6.07776
lfemur -359.572 245.971 -240.229
ltibia 204.918
lfoot 97.4777 -97.297
ltoes 13.0816
101
root -3.72382 6.09978 -1.23435 30.2139 -88.6448 -63.1911
lowerback 55.7845 -3.2389 3.7638
upperback 5.22903 -3.79702 -2.21186
thorax -15.8456 -2.41911 -2.10977
lowerneck 7.41959 2.43519 -1.04317
upperneck -2.7591 3.11809 -0.438228
head -2.14957 1.57461 -0.0878917
rclavicle 5.86415e-015 2.54444e-014
rhumerus 72.6074 -15.2541 -151.122
rradius 5.79677
rwrist 117.04
rhand -25.6702 11.6699
rfingers 7.12502
rthumb 0.864317 -18.3081
lclavicle 5.86415e-015 2.54444e-014
lhumerus 58.9494 2.78358 91.7334
lradius 11.9341
lwrist -67.3898
lhand -21.3767 1.24347
lfingers 7.12502
lthumb 5.01059 31.1642
rfemur 163.388 47.5468 33.6234
rtibia 201.041
rfoot 230.048 95.9981
rtoes -6.60681
lfemur -359.871 246.296 -239.053
ltibia 204.579
lfoot 99.3549 -97.464
ltoes 12.9526
